<svg width="24" height="24" viewBox="0 0 24 24" fill="none" xmlns="http://www.w3.org/2000/svg">
<g id="&#208;&#146;&#208;&#187;&#208;&#190;&#208;&#182;&#208;&#184;&#209;&#130;&#209;&#140; &#209;&#132;&#208;&#176;&#208;&#185;&#208;&#187;">
<path id="Fill 1" fill-rule="evenodd" clip-rule="evenodd" d="M8.59181 23C10.3529 23 12.0083 22.3141 13.2529 21.069L17.358 16.9641C17.6624 16.6599 17.6624 16.1666 17.358 15.8622C17.0538 15.558 16.5605 15.558 16.256 15.8622L12.1509 19.9671C11.2003 20.9179 9.93617 21.4414 8.59181 21.4414C7.24745 21.4414 5.98352 20.9179 5.0329 19.9671C4.08206 19.0165 3.55858 17.7525 3.55858 16.4082C3.55858 15.0638 4.08206 13.7994 5.0329 12.8488L14.2821 3.59937C14.9553 2.92617 15.85 2.55583 16.802 2.55583C17.7538 2.55583 18.6485 2.92617 19.3217 3.59937C19.9947 4.2728 20.3652 5.16775 20.3652 6.11951C20.3652 7.07126 19.9947 7.96621 19.3217 8.63896L10.0584 17.9022C9.23615 18.7243 7.8977 18.7243 7.07546 17.9022C6.67717 17.5035 6.45769 16.9739 6.45769 16.4107C6.45769 15.847 6.67717 15.3174 7.07546 14.9191L11.1942 10.8001C11.4986 10.4957 11.4986 10.0026 11.1942 9.69818C10.8897 9.39373 10.3967 9.39373 10.0923 9.69818L5.97352 13.8171C5.28078 14.5097 4.89908 15.4305 4.89908 16.4107C4.89908 17.3904 5.28078 18.3112 5.97352 19.0042C7.40354 20.434 9.73032 20.434 11.1603 19.0042L20.4236 9.74089C21.3911 8.77369 21.9238 7.48772 21.9238 6.11951C21.9238 4.75106 21.3911 3.46509 20.4236 2.49766C18.427 0.500778 15.1773 0.500778 13.1802 2.49766L3.93097 11.7469C2.68567 12.9917 1.99997 14.6471 1.99997 16.4082C1.99997 18.1685 2.68567 19.8242 3.93097 21.069C5.17558 22.3141 6.83121 23 8.59181 23Z" fill="white"/>
</g>
</svg>
