<svg width="24" height="24" viewBox="0 0 24 24" fill="none" xmlns="http://www.w3.org/2000/svg">
<g id="&#208;&#158;&#209;&#130;&#208;&#191;&#209;&#128;&#208;&#176;&#208;&#178;&#208;&#184;&#209;&#130;&#209;&#140;">
<rect id="Bg" width="24" height="24" fill="white" fill-opacity="0.01"/>
<path id="Fill 1" fill-rule="evenodd" clip-rule="evenodd" d="M3.8248 11.8408L10.0227 13.8182C10.2583 13.8936 10.4439 14.0768 10.5221 14.3115L12.4755 20.1715L20.5392 3.48399L3.8248 11.8408ZM12.3436 22.9999C12.3269 22.9999 12.3104 22.9992 12.2937 22.9983C11.9791 22.978 11.7083 22.769 11.6087 22.47L9.17665 15.1747L1.53915 12.7379C1.23922 12.6422 1.02691 12.3741 1.0023 12.0599C0.97813 11.7458 1.14639 11.4481 1.42826 11.3069L21.8789 1.0818C22.1757 0.933191 22.5332 0.99101 22.7695 1.22319C23.0053 1.45604 23.0672 1.81335 22.9228 2.11193L13.0408 22.5624C12.9109 22.8309 12.6392 22.9999 12.3436 22.9999Z" fill="white"/>
</g>
</svg>
